<mxfile host="65bd71144e">
    <diagram id="IkYTs75mhj4TECmvrreR" name="Page-1">
        <mxGraphModel dx="1154" dy="828" grid="1" gridSize="10" guides="1" tooltips="1" connect="1" arrows="1" fold="1" page="1" pageScale="1" pageWidth="1169" pageHeight="827" math="0" shadow="0">
            <root>
                <mxCell id="0"/>
                <mxCell id="1" parent="0"/>
                <mxCell id="qmMerwDKsAp8zAsYEjNZ-7" style="edgeStyle=orthogonalEdgeStyle;orthogonalLoop=1;jettySize=auto;html=1;entryX=0;entryY=0.5;entryDx=0;entryDy=0;entryPerimeter=0;fontSize=15;curved=1;" parent="1" source="qmMerwDKsAp8zAsYEjNZ-1" target="qmMerwDKsAp8zAsYEjNZ-6" edge="1">
                    <mxGeometry relative="1" as="geometry"/>
                </mxCell>
                <mxCell id="qmMerwDKsAp8zAsYEjNZ-8" value="POST" style="edgeLabel;html=1;align=center;verticalAlign=middle;resizable=0;points=[];fontSize=15;" parent="qmMerwDKsAp8zAsYEjNZ-7" vertex="1" connectable="0">
                    <mxGeometry x="-0.1745" y="-1" relative="1" as="geometry">
                        <mxPoint x="8" y="-1" as="offset"/>
                    </mxGeometry>
                </mxCell>
                <mxCell id="qmMerwDKsAp8zAsYEjNZ-1" value="&lt;font style=&quot;font-size: 14px&quot;&gt;Simulate Data Streaming&lt;/font&gt;" style="shape=image;html=1;verticalAlign=top;verticalLabelPosition=bottom;labelBackgroundColor=none;imageAspect=0;aspect=fixed;image=https://cdn4.iconfinder.com/data/icons/scripting-and-programming-languages/512/Python_logo-128.png;" parent="1" vertex="1">
                    <mxGeometry x="63" y="375" width="78" height="78" as="geometry"/>
                </mxCell>
                <mxCell id="qmMerwDKsAp8zAsYEjNZ-3" style="edgeStyle=orthogonalEdgeStyle;orthogonalLoop=1;jettySize=auto;html=1;entryX=0.5;entryY=0;entryDx=0;entryDy=0;curved=1;" parent="1" source="qmMerwDKsAp8zAsYEjNZ-2" target="qmMerwDKsAp8zAsYEjNZ-1" edge="1">
                    <mxGeometry relative="1" as="geometry"/>
                </mxCell>
                <mxCell id="qmMerwDKsAp8zAsYEjNZ-2" value="" style="shape=image;html=1;verticalAlign=top;verticalLabelPosition=bottom;labelBackgroundColor=#ffffff;imageAspect=0;aspect=fixed;image=https://cdn3.iconfinder.com/data/icons/dompicon-glyph-file-format-2/256/file-csv-format-type-128.png;" parent="1" vertex="1">
                    <mxGeometry x="55" y="230" width="94" height="94" as="geometry"/>
                </mxCell>
                <mxCell id="qmMerwDKsAp8zAsYEjNZ-12" style="edgeStyle=orthogonalEdgeStyle;orthogonalLoop=1;jettySize=auto;html=1;entryX=0;entryY=0.5;entryDx=0;entryDy=0;entryPerimeter=0;fontSize=16;startArrow=none;curved=1;" parent="1" source="qmMerwDKsAp8zAsYEjNZ-15" target="qmMerwDKsAp8zAsYEjNZ-11" edge="1">
                    <mxGeometry relative="1" as="geometry"/>
                </mxCell>
                <mxCell id="qmMerwDKsAp8zAsYEjNZ-6" value="API Gateway" style="points=[[0,0,0],[0.25,0,0],[0.5,0,0],[0.75,0,0],[1,0,0],[0,1,0],[0.25,1,0],[0.5,1,0],[0.75,1,0],[1,1,0],[0,0.25,0],[0,0.5,0],[0,0.75,0],[1,0.25,0],[1,0.5,0],[1,0.75,0]];outlineConnect=0;gradientColor=#945DF2;gradientDirection=north;fillColor=#5A30B5;strokeColor=#ffffff;dashed=0;verticalLabelPosition=bottom;verticalAlign=top;align=center;html=1;fontSize=14;fontStyle=0;aspect=fixed;shape=mxgraph.aws4.resourceIcon;resIcon=mxgraph.aws4.api_gateway;fontColor=#DEDEDE;" parent="1" vertex="1">
                    <mxGeometry x="260" y="375" width="78" height="78" as="geometry"/>
                </mxCell>
                <mxCell id="qmMerwDKsAp8zAsYEjNZ-29" style="edgeStyle=orthogonalEdgeStyle;orthogonalLoop=1;jettySize=auto;html=1;entryX=0;entryY=0.5;entryDx=0;entryDy=0;entryPerimeter=0;fontSize=14;startArrow=none;curved=1;" parent="1" source="qmMerwDKsAp8zAsYEjNZ-27" target="qmMerwDKsAp8zAsYEjNZ-28" edge="1">
                    <mxGeometry relative="1" as="geometry"/>
                </mxCell>
                <mxCell id="qmMerwDKsAp8zAsYEjNZ-11" value="&lt;font style=&quot;font-size: 14px&quot;&gt;Kinesis&lt;/font&gt;" style="points=[[0,0,0],[0.25,0,0],[0.5,0,0],[0.75,0,0],[1,0,0],[0,1,0],[0.25,1,0],[0.5,1,0],[0.75,1,0],[1,1,0],[0,0.25,0],[0,0.5,0],[0,0.75,0],[1,0.25,0],[1,0.5,0],[1,0.75,0]];outlineConnect=0;gradientColor=#945DF2;gradientDirection=north;fillColor=#5A30B5;strokeColor=#ffffff;dashed=0;verticalLabelPosition=bottom;verticalAlign=top;align=center;html=1;fontSize=12;fontStyle=0;aspect=fixed;shape=mxgraph.aws4.resourceIcon;resIcon=mxgraph.aws4.kinesis;fontColor=#DEDEDE;" parent="1" vertex="1">
                    <mxGeometry x="432" y="375" width="78" height="78" as="geometry"/>
                </mxCell>
                <mxCell id="qmMerwDKsAp8zAsYEjNZ-15" value="" style="points=[[0,0,0],[0.25,0,0],[0.5,0,0],[0.75,0,0],[1,0,0],[0,1,0],[0.25,1,0],[0.5,1,0],[0.75,1,0],[1,1,0],[0,0.25,0],[0,0.5,0],[0,0.75,0],[1,0.25,0],[1,0.5,0],[1,0.75,0]];outlineConnect=0;fontColor=#232F3E;gradientColor=#F78E04;gradientDirection=north;fillColor=#D05C17;strokeColor=#ffffff;dashed=0;verticalLabelPosition=bottom;verticalAlign=top;align=center;html=1;fontSize=12;fontStyle=0;aspect=fixed;shape=mxgraph.aws4.resourceIcon;resIcon=mxgraph.aws4.lambda;" parent="1" vertex="1">
                    <mxGeometry x="370" y="397" width="33" height="33" as="geometry"/>
                </mxCell>
                <mxCell id="qmMerwDKsAp8zAsYEjNZ-16" value="" style="edgeStyle=orthogonalEdgeStyle;orthogonalLoop=1;jettySize=auto;html=1;entryX=0;entryY=0.5;entryDx=0;entryDy=0;entryPerimeter=0;fontSize=16;endArrow=none;curved=1;" parent="1" source="qmMerwDKsAp8zAsYEjNZ-6" target="qmMerwDKsAp8zAsYEjNZ-15" edge="1">
                    <mxGeometry relative="1" as="geometry">
                        <mxPoint x="448" y="414.0588235294117" as="sourcePoint"/>
                        <mxPoint x="610" y="492.0000000000002" as="targetPoint"/>
                    </mxGeometry>
                </mxCell>
                <mxCell id="qmMerwDKsAp8zAsYEjNZ-24" style="edgeStyle=orthogonalEdgeStyle;orthogonalLoop=1;jettySize=auto;html=1;entryX=0;entryY=0.5;entryDx=0;entryDy=0;entryPerimeter=0;fontSize=16;exitX=1;exitY=0.5;exitDx=0;exitDy=0;exitPerimeter=0;startArrow=none;curved=1;" parent="1" source="qmMerwDKsAp8zAsYEjNZ-25" target="qmMerwDKsAp8zAsYEjNZ-23" edge="1">
                    <mxGeometry relative="1" as="geometry">
                        <mxPoint x="571" y="220" as="sourcePoint"/>
                        <Array as="points"/>
                    </mxGeometry>
                </mxCell>
                <mxCell id="qmMerwDKsAp8zAsYEjNZ-22" value="ecommerce data" style="text;html=1;strokeColor=none;fillColor=none;align=center;verticalAlign=middle;whiteSpace=wrap;fontSize=14;" parent="1" vertex="1">
                    <mxGeometry x="32" y="200" width="140" height="30" as="geometry"/>
                </mxCell>
                <mxCell id="qmMerwDKsAp8zAsYEjNZ-23" value="&lt;font color=&quot;#d1d1d1&quot;&gt;S3&lt;/font&gt;" style="points=[[0,0,0],[0.25,0,0],[0.5,0,0],[0.75,0,0],[1,0,0],[0,1,0],[0.25,1,0],[0.5,1,0],[0.75,1,0],[1,1,0],[0,0.25,0],[0,0.5,0],[0,0.75,0],[1,0.25,0],[1,0.5,0],[1,0.75,0]];outlineConnect=0;fontColor=#232F3E;gradientColor=#60A337;gradientDirection=north;fillColor=#277116;strokeColor=#ffffff;dashed=0;verticalLabelPosition=bottom;verticalAlign=top;align=center;html=1;fontSize=12;fontStyle=0;aspect=fixed;shape=mxgraph.aws4.resourceIcon;resIcon=mxgraph.aws4.s3;" parent="1" vertex="1">
                    <mxGeometry x="650" y="100" width="78" height="78" as="geometry"/>
                </mxCell>
                <mxCell id="qmMerwDKsAp8zAsYEjNZ-25" value="" style="points=[[0,0,0],[0.25,0,0],[0.5,0,0],[0.75,0,0],[1,0,0],[0,1,0],[0.25,1,0],[0.5,1,0],[0.75,1,0],[1,1,0],[0,0.25,0],[0,0.5,0],[0,0.75,0],[1,0.25,0],[1,0.5,0],[1,0.75,0]];outlineConnect=0;fontColor=#232F3E;gradientColor=#F78E04;gradientDirection=north;fillColor=#D05C17;strokeColor=#ffffff;dashed=0;verticalLabelPosition=bottom;verticalAlign=top;align=center;html=1;fontSize=12;fontStyle=0;aspect=fixed;shape=mxgraph.aws4.resourceIcon;resIcon=mxgraph.aws4.lambda;" parent="1" vertex="1">
                    <mxGeometry x="457" y="125" width="28" height="28" as="geometry"/>
                </mxCell>
                <mxCell id="qmMerwDKsAp8zAsYEjNZ-26" value="" style="edgeStyle=orthogonalEdgeStyle;orthogonalLoop=1;jettySize=auto;html=1;entryX=0.5;entryY=1;entryDx=0;entryDy=0;entryPerimeter=0;fontSize=16;exitX=0.5;exitY=0;exitDx=0;exitDy=0;exitPerimeter=0;endArrow=none;curved=1;" parent="1" source="qmMerwDKsAp8zAsYEjNZ-11" target="qmMerwDKsAp8zAsYEjNZ-25" edge="1">
                    <mxGeometry relative="1" as="geometry">
                        <mxPoint x="571.0000000000002" y="375" as="sourcePoint"/>
                        <mxPoint x="770" y="138.9999999999999" as="targetPoint"/>
                        <Array as="points"/>
                    </mxGeometry>
                </mxCell>
                <mxCell id="qmMerwDKsAp8zAsYEjNZ-28" value="DynamoDB" style="points=[[0,0,0],[0.25,0,0],[0.5,0,0],[0.75,0,0],[1,0,0],[0,1,0],[0.25,1,0],[0.5,1,0],[0.75,1,0],[1,1,0],[0,0.25,0],[0,0.5,0],[0,0.75,0],[1,0.25,0],[1,0.5,0],[1,0.75,0]];outlineConnect=0;gradientColor=#4D72F3;gradientDirection=north;fillColor=#3334B9;strokeColor=#ffffff;dashed=0;verticalLabelPosition=bottom;verticalAlign=top;align=center;html=1;fontSize=12;fontStyle=0;aspect=fixed;shape=mxgraph.aws4.resourceIcon;resIcon=mxgraph.aws4.dynamodb;fontColor=#DEDEDE;" parent="1" vertex="1">
                    <mxGeometry x="650" y="375" width="78" height="78" as="geometry"/>
                </mxCell>
                <mxCell id="qmMerwDKsAp8zAsYEjNZ-27" value="" style="points=[[0,0,0],[0.25,0,0],[0.5,0,0],[0.75,0,0],[1,0,0],[0,1,0],[0.25,1,0],[0.5,1,0],[0.75,1,0],[1,1,0],[0,0.25,0],[0,0.5,0],[0,0.75,0],[1,0.25,0],[1,0.5,0],[1,0.75,0]];outlineConnect=0;fontColor=#232F3E;gradientColor=#F78E04;gradientDirection=north;fillColor=#D05C17;strokeColor=#ffffff;dashed=0;verticalLabelPosition=bottom;verticalAlign=top;align=center;html=1;fontSize=12;fontStyle=0;aspect=fixed;shape=mxgraph.aws4.resourceIcon;resIcon=mxgraph.aws4.lambda;" parent="1" vertex="1">
                    <mxGeometry x="560" y="400" width="28" height="28" as="geometry"/>
                </mxCell>
                <mxCell id="qmMerwDKsAp8zAsYEjNZ-30" value="" style="edgeStyle=orthogonalEdgeStyle;orthogonalLoop=1;jettySize=auto;html=1;entryX=0;entryY=0.5;entryDx=0;entryDy=0;entryPerimeter=0;fontSize=14;endArrow=none;curved=1;" parent="1" source="qmMerwDKsAp8zAsYEjNZ-11" target="qmMerwDKsAp8zAsYEjNZ-27" edge="1">
                    <mxGeometry relative="1" as="geometry">
                        <mxPoint x="510" y="414" as="sourcePoint"/>
                        <mxPoint x="650" y="414" as="targetPoint"/>
                    </mxGeometry>
                </mxCell>
                <mxCell id="qmMerwDKsAp8zAsYEjNZ-31" value="" style="dashed=0;outlineConnect=0;html=1;align=center;labelPosition=center;verticalLabelPosition=bottom;verticalAlign=top;shape=mxgraph.weblogos.json;fontSize=14;" parent="1" vertex="1">
                    <mxGeometry x="677.08" y="60" width="23.83" height="25.8" as="geometry"/>
                </mxCell>
                <mxCell id="qmMerwDKsAp8zAsYEjNZ-34" value="" style="endArrow=none;html=1;fontSize=14;exitX=0.5;exitY=0;exitDx=0;exitDy=0;exitPerimeter=0;curved=1;" parent="1" source="qmMerwDKsAp8zAsYEjNZ-23" target="qmMerwDKsAp8zAsYEjNZ-31" edge="1">
                    <mxGeometry width="50" height="50" relative="1" as="geometry">
                        <mxPoint x="700" y="80" as="sourcePoint"/>
                        <mxPoint x="740" y="50" as="targetPoint"/>
                    </mxGeometry>
                </mxCell>
            </root>
        </mxGraphModel>
    </diagram>
</mxfile>